<?xml version="1.0" encoding="utf-8"?>
<!-- Generator: Adobe Illustrator 22.0.1, SVG Export Plug-In . SVG Version: 6.00 Build 0)  -->
<svg version="1.1" id="Capa_1" xmlns="http://www.w3.org/2000/svg" xmlns:xlink="http://www.w3.org/1999/xlink" x="0px" y="0px"
	 viewBox="94.5 0 2645.7 2834.6" style="enable-background:new 94.5 0 2645.7 2834.6;" xml:space="preserve">
<style type="text/css">
	.st0{fill:#007BC7;}
</style>
<g>
	<path class="st0" d="M2692.9,189h-330.7V47.2c0-26.1-21.1-47.2-47.2-47.2h-330.7c-26.1,0-47.2,21.1-47.2,47.2V189H897.6V47.2
		c0-26.1-21.1-47.2-47.2-47.2H519.7c-26.1,0-47.2,21.1-47.2,47.2V189H141.7c-26.1,0-47.2,21.1-47.2,47.2v519.7v2031.5
		c0,26.1,21.1,47.2,47.2,47.2h2551.2c26.1,0,47.2-21.1,47.2-47.2V755.9V236.2C2740.2,210.1,2719,189,2692.9,189z M2031.5,94.5h236.2
		v141.7V378h-236.2V236.2V94.5z M566.9,94.5h236.2v141.7V378H566.9V236.2V94.5z M189,283.5h283.5v141.7c0,26.1,21.1,47.2,47.2,47.2
		h330.7c26.1,0,47.2-21.1,47.2-47.2V283.5H1937v141.7c0,26.1,21.1,47.2,47.2,47.2H2315c26.1,0,47.2-21.1,47.2-47.2V283.5h283.5
		v425.2H189V283.5z M189,2740.2v-1937h2456.7v1937H189z"/>
	<path class="st0" d="M1795.3,1086.6h-330.7h-94.5h-330.7h-94.5H519.7v425.2v94.5V1937v94.5v425.2h425.2h94.5h330.7h94.5h330.7h94.5
		H2315v-425.2V1937v-330.7v-94.5v-425.2h-425.2H1795.3z M1464.6,1181.1h330.7v330.7h-330.7V1181.1z M1795.3,1937h-330.7v-330.7
		h330.7V1937z M1039.4,1606.3h330.7V1937h-330.7V1606.3z M1039.4,1181.1h330.7v330.7h-330.7V1181.1z M614.2,1181.1h330.7v330.7
		H614.2V1181.1z M614.2,1606.3h330.7V1937H614.2V1606.3z M944.9,2362.2H614.2v-330.7h330.7V2362.2z M1370.1,2362.2h-330.7v-330.7
		h330.7V2362.2z M1795.3,2362.2h-330.7v-330.7h330.7V2362.2z M2220.5,2362.2h-330.7v-330.7h330.7V2362.2z M2220.5,1937h-330.7
		v-330.7h330.7V1937z M2220.5,1181.1v330.7h-330.7v-330.7H2220.5z"/>
</g>
</svg>
