<?xml version="1.0" encoding="utf-8"?>
<!-- Generator: Adobe Illustrator 22.0.1, SVG Export Plug-In . SVG Version: 6.00 Build 0)  -->
<svg version="1.1" id="Layer_1" xmlns="http://www.w3.org/2000/svg" xmlns:xlink="http://www.w3.org/1999/xlink" x="0px" y="0px"
	 viewBox="0 0 2834.7 2834.6" style="enable-background:new 0 0 2834.7 2834.6;" xml:space="preserve">
<style type="text/css">
	.st0{fill:#FFFFFF;}
</style>
<g>
	<g>
		<path class="st0" d="M2762.5,1882.1c-39.8,0-72.2,32.3-72.2,72.2V2230c0,159.2-129.5,288.6-288.6,288.6H433
			c-159.2,0-288.6-129.5-288.6-288.6v-275.7c0-39.8-32.3-72.2-72.2-72.2c-39.9,0-72.2,32.3-72.2,72.2V2230
			c0,238.7,194.2,433,433,433h1968.7c238.7,0,433-194.2,433-433v-275.7C2834.7,1914.4,2802.3,1882.1,2762.5,1882.1z"/>
	</g>
</g>
<g>
	<g>
		<path class="st0" d="M2324.4,2166.4H510.3c-39.8,0-72.2,32.3-72.2,72.2s32.3,72.2,72.2,72.2h1814.1c39.9,0,72.2-32.3,72.2-72.2
			C2396.5,2198.7,2364.2,2166.4,2324.4,2166.4z"/>
	</g>
</g>
<g>
	<g>
		<path class="st0" d="M2147.7,1151.2c-26.5-29.7-72.2-32.3-101.9-5.7l-556.3,497V243.9c0-39.8-32.3-72.2-72.2-72.2
			c-39.8,0-72.2,32.3-72.2,72.2v1398.6l-556.3-497c-29.7-26.6-75.3-24-101.9,5.7c-26.5,29.7-24,75.3,5.7,101.9l604.4,540
			c34.3,30.6,77.2,45.9,120.2,45.9c43,0,85.9-15.3,120.2-45.9l604.4-540C2171.7,1226.5,2174.2,1180.9,2147.7,1151.2z"/>
	</g>
</g>
</svg>
