<?xml version="1.0" encoding="utf-8"?>
<!-- Generator: Adobe Illustrator 22.0.1, SVG Export Plug-In . SVG Version: 6.00 Build 0)  -->
<svg version="1.1" id="Capa_1" xmlns="http://www.w3.org/2000/svg" xmlns:xlink="http://www.w3.org/1999/xlink" x="0px" y="0px"
	 viewBox="0 0 2834.7 2834.6" style="enable-background:new 0 0 2834.7 2834.6;" xml:space="preserve">
<style type="text/css">
	.st0{fill:#007BC7;}
</style>
<g>
	<path class="st0" d="M2362.2,1511.8c130.3,0,236.2-106,236.2-236.2c0-130.3-106-236.2-236.2-236.2c-130.3,0-236.2,106-236.2,236.2
		C2126,1405.8,2232,1511.8,2362.2,1511.8z M2362.2,1133.9c78.1,0,141.7,63.6,141.7,141.7c0,78.1-63.6,141.7-141.7,141.7
		c-78.1,0-141.7-63.6-141.7-141.7C2220.5,1197.5,2284.1,1133.9,2362.2,1133.9z"/>
	<path class="st0" d="M850.4,425.2h850.4c26.1,0,47.2-21.1,47.2-47.2c0-26.1-21.1-47.2-47.2-47.2H850.4c-26.1,0-47.2,21.1-47.2,47.2
		C803.2,404.1,824.3,425.2,850.4,425.2z"/>
	<path class="st0" d="M1984.3,566.9H850.4c-26.1,0-47.2,21.1-47.2,47.2c0,26.1,21.1,47.2,47.2,47.2h1133.9
		c26.1,0,47.2-21.1,47.2-47.2C2031.5,588,2010.4,566.9,1984.3,566.9z"/>
	<path class="st0" d="M1984.3,2031.5H850.4c-26.1,0-47.2,21.1-47.2,47.2c0,26.1,21.1,47.2,47.2,47.2h1133.9
		c26.1,0,47.2-21.1,47.2-47.2C2031.5,2052.6,2010.4,2031.5,1984.3,2031.5z"/>
	<path class="st0" d="M1984.3,2267.7H850.4c-26.1,0-47.2,21.1-47.2,47.2c0,26.1,21.1,47.2,47.2,47.2h1133.9
		c26.1,0,47.2-21.1,47.2-47.2C2031.5,2288.8,2010.4,2267.7,1984.3,2267.7z"/>
	<path class="st0" d="M2409.5,803.2V0H425.2v803.2H0v1606.3h283.5v141.7h141.7v283.5h1984.3v-283.5h141.7v-141.7h283.5V803.2H2409.5
		z M519.7,94.5H2315v708.7H519.7V94.5z M425.2,897.6h1984.3h330.7v755.9H94.5V897.6H425.2z M378,2456.7v-94.5V2315v-189
		c0-26.1-21.1-47.2-47.2-47.2c-26.1,0-47.2,21.1-47.2,47.2v189h-189V1748h330.7v708.7H378z M2315,2740.2H519.7v-189V1748H2315v803.2
		V2740.2z M2551.2,2315v-189c0-26.1-21.1-47.2-47.2-47.2c-26.1,0-47.2,21.1-47.2,47.2v189v47.2v94.5h-47.2V1748h330.7V2315H2551.2z"
		/>
	<path class="st0" d="M283.5,1133.9h141.7c26.1,0,47.2-21.1,47.2-47.2c0-26.1-21.1-47.2-47.2-47.2H283.5
		c-26.1,0-47.2,21.1-47.2,47.2C236.2,1112.7,257.3,1133.9,283.5,1133.9z"/>
	<path class="st0" d="M283.5,1322.8h141.7c26.1,0,47.2-21.1,47.2-47.2s-21.1-47.2-47.2-47.2H283.5c-26.1,0-47.2,21.1-47.2,47.2
		S257.3,1322.8,283.5,1322.8z"/>
	<path class="st0" d="M283.5,1511.8h141.7c26.1,0,47.2-21.1,47.2-47.2c0-26.1-21.1-47.2-47.2-47.2H283.5
		c-26.1,0-47.2,21.1-47.2,47.2C236.2,1490.7,257.3,1511.8,283.5,1511.8z"/>
	<path class="st0" d="M614.2,1133.9h141.7c26.1,0,47.2-21.1,47.2-47.2c0-26.1-21.1-47.2-47.2-47.2H614.2
		c-26.1,0-47.2,21.1-47.2,47.2C566.9,1112.7,588,1133.9,614.2,1133.9z"/>
	<path class="st0" d="M614.2,1322.8h141.7c26.1,0,47.2-21.1,47.2-47.2s-21.1-47.2-47.2-47.2H614.2c-26.1,0-47.2,21.1-47.2,47.2
		S588,1322.8,614.2,1322.8z"/>
	<path class="st0" d="M614.2,1511.8h141.7c26.1,0,47.2-21.1,47.2-47.2c0-26.1-21.1-47.2-47.2-47.2H614.2
		c-26.1,0-47.2,21.1-47.2,47.2C566.9,1490.7,588,1511.8,614.2,1511.8z"/>
	<path class="st0" d="M944.9,1133.9h141.7c26.1,0,47.2-21.1,47.2-47.2c0-26.1-21.1-47.2-47.2-47.2H944.9
		c-26.1,0-47.2,21.1-47.2,47.2C897.6,1112.7,918.8,1133.9,944.9,1133.9z"/>
	<path class="st0" d="M944.9,1322.8h141.7c26.1,0,47.2-21.1,47.2-47.2s-21.1-47.2-47.2-47.2H944.9c-26.1,0-47.2,21.1-47.2,47.2
		S918.8,1322.8,944.9,1322.8z"/>
	<path class="st0" d="M944.9,1511.8h141.7c26.1,0,47.2-21.1,47.2-47.2c0-26.1-21.1-47.2-47.2-47.2H944.9
		c-26.1,0-47.2,21.1-47.2,47.2C897.6,1490.7,918.8,1511.8,944.9,1511.8z"/>
</g>
</svg>
