<?xml version="1.0" encoding="utf-8"?>
<!-- Generator: Adobe Illustrator 22.0.1, SVG Export Plug-In . SVG Version: 6.00 Build 0)  -->
<svg version="1.1" id="Capa_1" xmlns="http://www.w3.org/2000/svg" xmlns:xlink="http://www.w3.org/1999/xlink" x="0px" y="0px"
	 viewBox="0 0 58 46" style="enable-background:new 0 0 58 46;" xml:space="preserve">
<style type="text/css">
	.st0{fill:#FFFFFF;}
</style>
<g>
	<path class="st0" d="M57,0H1C0.4,0,0,0.4,0,1v44c0,0.6,0.4,1,1,1h56c0.6,0,1-0.4,1-1V1C58,0.4,57.6,0,57,0z M56,44H2V2h54V44z"/>
	<path class="st0" d="M16,22.1c3.1,0,5.6-2.5,5.6-5.6c0-3.1-2.5-5.6-5.6-5.6s-5.6,2.5-5.6,5.6S12.9,22.1,16,22.1z M16,13
		c2,0,3.6,1.6,3.6,3.6S18,20.1,16,20.1s-3.6-1.6-3.6-3.6S14,13,16,13z"/>
	<path class="st0" d="M7,40c0.2,0,0.5-0.1,0.7-0.2L24,25.4l10.3,10.3c0.4,0.4,1,0.4,1.4,0s0.4-1,0-1.4l-4.8-4.8l9.2-10.1l11.3,10.3
		c0.4,0.4,1,0.3,1.4-0.1c0.4-0.4,0.3-1-0.1-1.4l-12-11C40.5,17.1,40.2,17,40,17c-0.3,0-0.5,0.1-0.7,0.3l-9.8,10.7l-4.7-4.7
		c-0.4-0.4-1-0.4-1.4,0l-17,15c-0.4,0.4-0.5,1-0.1,1.4C6.4,39.9,6.7,40,7,40z"/>
</g>
</svg>
