<?xml version="1.0" encoding="utf-8"?>
<!-- Generator: Adobe Illustrator 22.0.1, SVG Export Plug-In . SVG Version: 6.00 Build 0)  -->
<svg version="1.1" id="Layer_1" xmlns="http://www.w3.org/2000/svg" xmlns:xlink="http://www.w3.org/1999/xlink" x="0px" y="0px"
	 viewBox="0 376.8 2834.7 2081" style="enable-background:new 0 376.8 2834.7 2081;" xml:space="preserve">
<style type="text/css">
	.st0{fill:#007BC7;}
</style>
<g>
	<g>
		<path class="st0" d="M2500.9,1313.6c-96.5-48.2-277.3-48.8-285-48.8c-22.9,0-41.5,18.6-41.5,41.5c0,22.9,18.6,41.5,41.5,41.5
			c46.7,0,182.2,7.2,247.8,40c6,3,12.3,4.4,18.5,4.4c15.2,0,29.9-8.4,37.2-23C2529.7,1348.8,2521.4,1323.8,2500.9,1313.6z"/>
	</g>
</g>
<g>
	<g>
		<path class="st0" d="M2707.9,1904.8l-171.5-49c-7.4-2.1-12.6-9-12.6-16.7v-57.2c14-9.7,27.3-20.5,39.7-32.6
			c60.3-58.5,93.5-137,93.5-221v-79l16.6-33.2c18.2-36.4,27.8-77.2,27.8-117.8v-214c0-22.9-18.6-41.5-41.5-41.5h-399.6
			c-145.3,0-263.5,118.2-263.5,263.5v2.5c0,33.8,8,67.7,23.1,98l21.3,42.5v67.8c0,107.5,53,203.9,133.2,262l0,60
			c0,9.3,0,13.1-34.3,22.9l-83.7,23.9l-242.1-88c0.9-11.4-3-23-11.3-31.8l-77.3-81.3v-136.4c8.2-6.7,16.2-13.7,24.1-21
			c97.6-91.5,153.5-220.6,153.5-354.3v-108.9c29.5-64.1,44.4-132,44.4-201.8v-444c0-22.9-18.6-41.5-41.5-41.5h-621.6
			c-218.7,0-396.7,178-396.7,396.7v88.8c0,69.9,14.9,137.7,44.4,201.8v93.7c0,155.2,69,295.1,177.6,387.3v139.6l-77.3,81.3
			c-8.3,8.8-12.2,20.4-11.3,31.8l-255.5,92.9c-18.5,6.7-35.7,15.8-51.3,26.9l-40.1-20.1c119.4-52,157.3-125.1,159.1-128.7
			c5.8-11.7,5.8-25.5,0-37.1c-29.9-59.9-33.6-169.6-36.5-257.8c-1-29.4-1.9-57.1-3.6-81.8c-14.2-199.2-165.6-349.4-352.2-349.4
			c-186.6,0-338,150.2-352.2,349.4c-1.8,24.7-2.7,52.4-3.6,81.8c-2.9,88.2-6.5,197.9-36.5,257.8c-5.8,11.7-5.8,25.5,0,37.1
			c1.8,3.6,39.6,76.6,159.2,128.6l-111.4,55.7C37,1983,0,2042.9,0,2109.5v306.8c0,22.9,18.6,41.5,41.5,41.5
			c22.9,0,41.5-18.6,41.5-41.5v-306.8c0-34.9,19.4-66.4,50.7-82l138.8-69.4l48.3,45.9c33.8,32.1,77,48.1,120.4,48.1
			c43.3,0,86.6-16,120.4-48.1l48.3-45.9l45.2,22.6c-21.3,34.1-33.4,74.1-33.4,115.9v319.6c0,22.9,18.6,41.5,41.5,41.5
			c22.9,0,41.5-18.6,41.5-41.5v-319.6c0-57,36-108.4,89.6-127.9l269.4-97.9l112.1,168.2c14.3,21.5,37.3,35.3,63,37.8
			c2.9,0.3,5.7,0.4,8.6,0.4c22.7,0,44.4-8.9,60.7-25.2l68.4-68.4v432.5c0,22.9,18.6,41.5,41.5,41.5c22.9,0,41.5-18.6,41.5-41.5
			v-432.5l68.4,68.4c16.2,16.2,38,25.2,60.7,25.2c2.8,0,5.7-0.1,8.6-0.4c25.7-2.5,48.7-16.3,63-37.8l112.1-168.2l269.4,97.9
			c53.6,19.5,89.6,70.9,89.6,127.9v319.6c0,22.9,18.6,41.5,41.5,41.5s41.5-18.6,41.5-41.5v-319.6c0-57.7-22.9-111.9-61.4-151.9
			l10.3-2.9c10.3-3,24.5-7,38.6-14l106,106v382.4c0,22.9,18.6,41.5,41.5,41.5c22.9,0,41.5-18.6,41.5-41.5v-382.4l105.3-105.3
			c5.6,2.8,11.5,5.2,17.7,7l171.5,49c39.1,11.2,66.5,47.4,66.5,88.1v343.5c0,22.9,18.6,41.5,41.5,41.5s41.5-18.6,41.5-41.5v-343.5
			C2834.7,1995.2,2782.5,1926.1,2707.9,1904.8z M266.4,1831.4c-77.7-27.9-116.6-65.2-133.3-85.6c11.3-29.6,18.7-63.6,23.7-99.4
			c22.9,54.9,61.2,101.8,109.6,135.2V1831.4z M504.3,1943.8c-35.4,33.7-90.9,33.6-126.3,0l-38.6-36.7c6.5-12.2,10.1-26,10.1-40.5
			v-44.3c29,9.1,59.8,13.9,91.7,13.9c31.9,0,62.7-4.9,91.7-13.9l0,44.2c0,14.5,3.6,28.4,10.1,40.6L504.3,1943.8z M441.1,1753.2
			c-124,0-224.9-100.9-224.9-224.9c0-22.9-18.6-41.5-41.5-41.5c-2.3,0-4.6,0.2-6.8,0.6c0.1-3.6,0.2-7.1,0.4-10.7
			c0.9-28.6,1.8-55.5,3.5-78.6c5.3-74.6,35.1-143.4,83.9-193.6c49.3-50.7,115.1-78.6,185.4-78.6c70.3,0,136.1,27.9,185.4,78.6
			c48.8,50.2,78.6,119,83.9,193.6c1.6,23.1,2.5,50.1,3.5,78.6c0.1,2.5,0.2,4.9,0.2,7.4c-45.2-69.6-114.9-120.9-205.1-149.9
			c-83.3-26.8-154.9-25.1-157.9-25c-10.9,0.3-21.2,4.9-28.7,12.7l-74.9,77.7c-15.9,16.5-15.4,42.8,1.1,58.7
			c16.5,15.9,42.8,15.4,58.7-1.1l62.3-64.6c53.7,2.6,226.4,22.7,293.6,170.6C646.3,1672.2,552.6,1753.2,441.1,1753.2z M615.8,1831.6
			l0-49.5c48.3-33.3,86.7-80,109.6-135.4c5,35.8,12.3,69.6,23.6,99.2C732.5,1766,693.4,1803.6,615.8,1831.6z M1015.4,1157.9v-103
			c0-6.3-1.4-12.4-4.1-18.1c-26.7-55.3-40.3-114-40.3-174.5v-88.8c0-173,140.7-313.7,313.7-313.7h580v402.5
			c0,60.5-13.5,119.2-40.3,174.5c-2.7,5.6-4.1,11.8-4.1,18.1v118.2c0,112.5-45.2,216.8-127.3,293.7c-10.2,9.6-20.9,18.6-31.9,27
			c-0.2,0.2-0.5,0.3-0.7,0.5c-76.9,58.4-171.1,86.8-269.4,80.4C1180.4,1561.1,1015.4,1378,1015.4,1157.9z M1249.2,1993.4
			c-0.3,0.3-1,1-2.3,0.8c-1.4-0.1-1.9-0.9-2.1-1.3l-129.1-193.7l41.6-43.7l195.9,133.9L1249.2,1993.4z M1417.9,1833.2L1193,1679.5
			V1602c58.2,31.5,123.3,51.1,192.6,55.6c10.9,0.7,21.8,1.1,32.7,1.1c79.4,0,155.8-19,224.4-55v75.8L1417.9,1833.2z M1590.9,1993
			c-0.2,0.3-0.8,1.1-2.1,1.3c-1.4,0.2-2-0.5-2.3-0.8l-103.9-103.9l195.9-133.9l41.6,43.7L1590.9,1993z M2349.1,1958l-94.2-94.2
			c1.6-7.5,2.6-15.6,2.6-24.7l0-17.5c26.1,8.6,53.7,13.7,82.2,14.5c3.2,0.1,6.4,0.1,9.6,0.1c31.5,0,62.3-4.8,91.6-13.8v16.7
			c0,8.3,1,16.4,3,24.2L2349.1,1958z M2505.7,1689.7c-44,42.7-102.1,65.3-163.5,63.4c-120.2-3.6-217.9-109.4-217.9-235.9v-77.6
			c0-6.4-1.5-12.8-4.4-18.6l-25.7-51.3c-9.4-18.8-14.4-39.8-14.4-60.9v-2.5c0-99.5,81-180.5,180.5-180.5h358.1v172.5
			c0,27.9-6.6,55.8-19.1,80.7l-21,41.9c-2.9,5.8-4.4,12.1-4.4,18.6v88.8C2574,1589.7,2549.8,1647,2505.7,1689.7z"/>
	</g>
</g>
<g>
	<g>
		<path class="st0" d="M2615.5,2108.3c-22.9,0-41.5,18.6-41.5,41.5v266.4c0,22.9,18.6,41.5,41.5,41.5s41.5-18.6,41.5-41.5v-266.4
			C2657.1,2126.9,2638.5,2108.3,2615.5,2108.3z"/>
	</g>
</g>
<g>
	<g>
		<path class="st0" d="M219.1,2163.2c-22.9,0-41.5,18.6-41.5,41.5v211.5c0,22.9,18.6,41.5,41.5,41.5c22.9,0,41.5-18.6,41.5-41.5
			v-211.5C260.6,2181.8,242,2163.2,219.1,2163.2z"/>
	</g>
</g>
<g>
	<g>
		<path class="st0" d="M1758,877.4c-157-157-485.6-127-619.6-106.8c-42.2,6.4-72.8,42.1-72.8,84.9v95.7c0,22.9,18.6,41.5,41.5,41.5
			c22.9,0,41.5-18.6,41.5-41.5v-95.7c0-1.4,0.9-2.6,2.2-2.8c53.5-8.1,159.7-20.5,269.8-13.2c129.5,8.6,223.3,41.1,278.8,96.6
			c16.2,16.2,42.5,16.2,58.7,0C1774.2,919.9,1774.2,893.6,1758,877.4z"/>
	</g>
</g>
<g>
	<g>
		<path class="st0" d="M929.5,2197.1c-22.9,0-41.5,18.6-41.5,41.5v177.6c0,22.9,18.6,41.5,41.5,41.5c22.9,0,41.5-18.6,41.5-41.5
			v-177.6C971,2215.7,952.4,2197.1,929.5,2197.1z"/>
	</g>
</g>
<g>
	<g>
		<path class="st0" d="M1906.2,2197.1c-22.9,0-41.5,18.6-41.5,41.5v177.6c0,22.9,18.6,41.5,41.5,41.5c22.9,0,41.5-18.6,41.5-41.5
			v-177.6C1947.7,2215.7,1929.2,2197.1,1906.2,2197.1z"/>
	</g>
</g>
</svg>
