<?xml version="1.0" encoding="utf-8"?>
<!-- Generator: Adobe Illustrator 22.0.1, SVG Export Plug-In . SVG Version: 6.00 Build 0)  -->
<svg version="1.1" id="Layer_1" xmlns="http://www.w3.org/2000/svg" xmlns:xlink="http://www.w3.org/1999/xlink" x="0px" y="0px"
	 viewBox="0 0 100.6 169.5" style="enable-background:new 0 0 100.6 169.5;" xml:space="preserve">
<style type="text/css">
	.st0{fill:#DD0A83;}
	.st1{fill:#990460;}
	.st2{fill:#FFFFFF;}
</style>
<circle class="st0" cx="40.2" cy="40.2" r="40.2"/>
<path class="st1" d="M10.3,13.5c6.3,7.1,17.3,11.9,29.7,11.9c12.6,0,23.7-4.9,30-12.3C62.6,5,52.1,0,40.3,0
	C28.4,0,17.7,5.2,10.3,13.5z"/>
<path class="st1" d="M40.5,67.7c-8.1,0-15.6,2.6-21.5,6.9c6,3.6,13.1,5.7,20.7,5.7c7.9,0,15.3-2.3,21.5-6.2
	C55.5,70.1,48.3,67.7,40.5,67.7z"/>
<circle class="st1" cx="40.5" cy="142.9" r="20.6"/>
<circle class="st2" cx="40.5" cy="142.9" r="16.1"/>
<path class="st1" d="M97.8,140.1c-1.2,0-2.2,0.8-2.6,1.8H67.1c-0.5-14-11.9-25.3-25.9-25.6V98.9c1.2-0.3,2.1-1.4,2.1-2.7
	c0-1.5-1.2-2.8-2.8-2.8s-2.8,1.2-2.8,2.8c0,1.3,0.9,2.4,2.1,2.7v18.9h1.3c13.2,0.3,23.9,11,24.4,24.2v1.6h0
	C65.2,157.1,54.1,168,40.5,168c-13,0-23.8-10-25-22.7c1.1-0.4,1.8-1.4,1.8-2.6c0-1.5-1.2-2.8-2.8-2.8s-2.8,1.2-2.8,2.8
	c0,1.4,1,2.5,2.3,2.7c1.3,13.5,12.6,24.1,26.5,24.1c14.4,0,26.2-11.5,26.6-25.9h28.1c0.3,1.2,1.4,2.1,2.7,2.1c1.5,0,2.8-1.2,2.8-2.8
	S99.4,140.1,97.8,140.1z"/>
</svg>
